<?xml version="1.0" standalone="no"?><!DOCTYPE svg PUBLIC "-//W3C//DTD SVG 1.1//EN" "http://www.w3.org/Graphics/SVG/1.1/DTD/svg11.dtd"><svg t="1544597298820" class="icon" style="" viewBox="0 0 1024 1024" version="1.1" xmlns="http://www.w3.org/2000/svg" p-id="5281" xmlns:xlink="http://www.w3.org/1999/xlink" width="80" height="80"><defs><style type="text/css"></style></defs><path d="M911.36 204.8H317.44c-20.48 0-40.96 15.36-56.32 25.6l-204.8 204.8c-46.08 40.96-46.08 112.64 0 158.72l204.8 204.8c15.36 5.12 30.72 20.48 56.32 20.48h593.92c46.08 0 87.04-40.96 87.04-97.28V302.08c0-56.32-40.96-97.28-87.04-97.28z m-138.24 414.72c10.24 10.24 10.24 25.6 0 35.84-5.12 10.24-15.36 10.24-20.48 10.24s-15.36 0-20.48-5.12l-107.52-107.52-107.52 107.52c-5.12 5.12-15.36 5.12-20.48 5.12s-15.36 0-20.48-5.12c-10.24-10.24-10.24-25.6 0-35.84l107.52-107.52-107.52-112.64c-10.24-10.24-10.24-25.6 0-35.84s25.6-10.24 35.84 0l107.52 107.52 107.52-107.52c10.24-10.24 25.6-10.24 35.84 0s10.24 25.6 0 35.84l-102.4 107.52 112.64 107.52z" p-id="5282"></path></svg>